<svg id="Слой_1" data-name="Слой 1" xmlns="http://www.w3.org/2000/svg" viewBox="0 0 459 96.85"><defs><style>.cls-1{isolation:isolate;}.cls-2{fill:#fe2c2b;}.cls-3{fill:#fbfbfb;}</style></defs><g id="Слой_2" data-name="Слой 2"><g class="cls-1"><path class="cls-2" d="M314.67,18.86a17.05,17.05,0,0,0-6.45-1.15,14.66,14.66,0,0,0-11.12,4.68c-2.88,3.17-4.36,7.92-4.36,14.26s1.56,10.87,4.75,13.53a15.94,15.94,0,0,0,10.73,4A14.74,14.74,0,0,0,317.86,51a13.08,13.08,0,0,0,4.59-8.2H309.54V34.13h23.25V61.92h-7.7l-1.17-6.48a26.14,26.14,0,0,1-6.06,5.18,22.48,22.48,0,0,1-11.43,2.67q-11.08,0-18.2-7.13c-5-4.75-7.38-11.31-7.38-19.66s2.48-15,7.46-20.16,11.59-7.56,19.75-7.56c7.08,0,12.83,1.66,17.19,5a18.42,18.42,0,0,1,7.38,12.53H321.12A10.23,10.23,0,0,0,314.67,18.86Z"/><path class="cls-2" d="M383.41,61.92l-3.58-10.66H359.15l-3.81,10.66H343.05l20-51.84h13.22l19.83,51.84ZM362.34,42.33h14.23l-7-20.37Z"/><path class="cls-2" d="M403,10.08H445.7v8.71l-29.24,34h29.31v9.14H402.23V52.78l28.92-33.49H403Z"/></g><g class="cls-1"><path class="cls-3" d="M30.38,43.27V34.59H53.71V55.12a29.55,29.55,0,0,1-9.85,5.57A37.29,37.29,0,0,1,30.79,63.1a30.33,30.33,0,0,1-14.67-3.39A22,22,0,0,1,6.73,50,30.28,30.28,0,0,1,3.58,36.27,28.73,28.73,0,0,1,7.09,22a23.23,23.23,0,0,1,10.28-9.6A28.63,28.63,0,0,1,30.2,9.8q10,0,15.59,4A18.1,18.1,0,0,1,53,25L42.27,26.89a11,11,0,0,0-4.26-6A13.3,13.3,0,0,0,30.2,18.7q-7.1,0-11.28,4.32T14.73,35.85Q14.73,45,19,49.62A14.43,14.43,0,0,0,30.09,54.2a19.18,19.18,0,0,0,6.82-1.28,23.37,23.37,0,0,0,5.87-3.11V43.27Z"/><path class="cls-3" d="M64.42,36.77a31.56,31.56,0,0,1,2.45-13.22,24.23,24.23,0,0,1,5-7.07,21.05,21.05,0,0,1,6.93-4.64,30.45,30.45,0,0,1,11.55-2q11.85,0,19,7.07t7.11,19.65q0,12.48-7.06,19.53T90.49,63.1q-12,0-19-7T64.42,36.77Zm11.15-.35q0,8.74,4.2,13.27A14,14,0,0,0,90.45,54.2a13.8,13.8,0,0,0,10.62-4.48q4.16-4.48,4.15-13.45t-4-13.21A13.91,13.91,0,0,0,90.45,18.7a14,14,0,0,0-10.78,4.41Q75.57,27.52,75.57,36.42Z"/><path class="cls-3" d="M127.81,62.22V10.68h22.78q8.59,0,12.49,1.39A12.25,12.25,0,0,1,169.31,17a14.42,14.42,0,0,1,2.34,8.12,13.42,13.42,0,0,1-3.55,9.58q-3.54,3.78-10.6,4.76a25.56,25.56,0,0,1,5.8,4.33,59.54,59.54,0,0,1,6.16,8.37l6.54,10H163.06L155.23,51a72.61,72.61,0,0,0-5.7-7.57,8.41,8.41,0,0,0-3.25-2.15,18.77,18.77,0,0,0-5.45-.58h-2.19V62.22Zm10.83-29.74h8c5.19,0,8.44-.21,9.73-.64a5.78,5.78,0,0,0,3-2.17,6.57,6.57,0,0,0,1.1-3.87,6,6,0,0,0-1.44-4.2,6.73,6.73,0,0,0-4.08-2q-1.32-.18-7.9-.18h-8.44Z"/><path class="cls-3" d="M182.58,36.77A31.72,31.72,0,0,1,185,23.55a24.23,24.23,0,0,1,5-7.07A21.05,21.05,0,0,1,197,11.84a30.45,30.45,0,0,1,11.55-2q11.85,0,19,7.07t7.11,19.65q0,12.48-7.06,19.53T208.65,63.1q-12,0-19-7T182.58,36.77Zm11.15-.35q0,8.74,4.21,13.27a14.85,14.85,0,0,0,21.29,0q4.16-4.48,4.15-13.45t-4-13.21a15.38,15.38,0,0,0-21.51.05Q193.74,27.52,193.73,36.42Z"/><path class="cls-3" d="M246,62.22V10.68H256.8V31H278V10.68h10.82V62.22H278V39.68H256.8V62.22Z"/></g></g></svg>